<?xml version="1.0" standalone="no"?>
<!DOCTYPE svg PUBLIC "-//W3C//DTD SVG 20010904//EN"
 "http://www.w3.org/TR/2001/REC-SVG-20010904/DTD/svg10.dtd">
<svg version="1.0" xmlns="http://www.w3.org/2000/svg"
 width="1488.000000pt" height="873.000000pt" viewBox="0 0 1488.000000 873.000000"
 preserveAspectRatio="xMidYMid meet">

<g transform="translate(0.000000,873.000000) scale(0.100000,-0.100000)"
fill="#000000" stroke="none">
<path d="M290 7915 c0 -22 45 -55 74 -55 9 0 16 -4 16 -10 0 -5 12 -16 28 -24
15 -8 44 -30 66 -50 21 -20 44 -37 50 -38 6 -1 -110 -5 -259 -8 l-270 -5 280
-3 280 -2 63 -55 c35 -30 67 -55 71 -55 18 0 100 -89 107 -116 4 -16 15 -37
25 -47 11 -10 19 -30 19 -46 0 -16 11 -44 24 -64 15 -22 26 -55 29 -88 2 -30
13 -92 22 -139 17 -76 18 -142 18 -640 0 -305 -5 -631 -11 -725 -24 -399 -31
-576 -32 -845 0 -157 -4 -301 -10 -320 -5 -19 -16 -92 -25 -162 -8 -70 -22
-156 -30 -190 -8 -35 -15 -86 -15 -114 0 -49 -33 -176 -84 -329 -14 -38 -30
-108 -36 -155 -7 -47 -16 -101 -20 -120 -5 -19 -16 -102 -25 -185 -9 -82 -22
-175 -30 -205 -8 -30 -19 -111 -25 -180 -6 -69 -16 -143 -22 -165 -36 -137
-40 -200 -45 -698 -5 -499 -5 -499 18 -560 39 -108 95 -211 145 -266 74 -82
207 -166 343 -216 64 -24 146 -55 181 -70 80 -34 255 -72 415 -89 80 -9 143
-22 190 -40 316 -121 847 -241 1240 -281 88 -8 243 -31 345 -50 102 -19 264
-42 360 -50 196 -18 523 -68 765 -116 l160 -33 1230 -3 1230 -4 210 35 c207
35 415 78 569 117 116 30 274 114 517 274 490 325 632 433 734 557 33 40 92
109 131 153 99 111 164 220 261 434 66 147 92 219 127 355 66 252 76 350 76
746 0 428 -13 504 -132 783 -77 182 -88 202 -168 322 -36 55 -88 141 -114 190
-174 324 -313 525 -536 775 -61 69 -139 158 -173 198 -34 41 -151 149 -259
241 -229 195 -395 303 -953 623 -469 269 -536 304 -810 412 -132 52 -334 136
-450 186 -312 137 -437 183 -680 255 -465 136 -628 168 -1230 245 -220 28
-490 66 -600 84 -110 19 -240 37 -290 41 -49 3 -121 15 -160 25 -38 10 -119
26 -180 34 -60 8 -157 29 -215 46 -213 63 -356 100 -437 116 -46 8 -107 26
-136 38 -57 26 -256 60 -437 76 -146 13 -178 17 -271 41 -68 17 -132 20 -535
26 l-459 6 -37 25 c-21 14 -38 28 -38 33 0 4 -17 18 -37 30 -21 13 -41 27 -45
33 -3 5 -21 14 -39 20 -19 6 -39 22 -46 36 -11 22 -13 23 -13 5z m6647 -3273
c48 -26 153 -97 193 -130 19 -16 44 -34 55 -40 63 -33 166 -160 215 -267 65
-141 71 -186 68 -476 l-3 -256 -35 -69 c-31 -61 -42 -72 -100 -106 -139 -80
-118 -78 -780 -78 -608 0 -636 1 -880 46 -74 13 -184 31 -245 39 -201 28 -419
64 -467 77 -31 9 -65 31 -102 66 l-57 52 -79 0 c-126 0 -271 -42 -552 -159
-70 -29 -93 -44 -179 -110 -14 -11 -51 -34 -81 -50 -49 -27 -70 -32 -199 -43
-137 -11 -553 -16 -631 -7 -20 3 -40 8 -45 12 -4 5 1 5 12 1 12 -4 17 -3 12 2
-5 5 -25 9 -45 9 -37 0 -37 0 -39 45 -2 39 -1 42 9 23 12 -26 17 -27 38 -12
13 9 12 10 -2 5 -34 -11 -48 41 -48 178 0 110 3 129 22 163 62 109 129 164
281 230 134 59 139 60 280 73 67 6 148 18 180 26 47 12 133 14 475 12 l417 -3
65 -30 c82 -37 135 -73 151 -103 7 -12 37 -43 67 -67 54 -45 55 -45 133 -45
75 0 85 3 196 56 65 31 186 82 268 113 148 57 248 104 455 213 252 131 250
130 668 511 48 44 98 81 114 84 15 3 33 12 39 19 17 20 116 18 156 -4z m-1392
-1776 c110 -59 155 -90 155 -105 0 -7 9 -30 19 -50 18 -34 41 -189 41 -270 l0
-34 -112 5 -113 5 -39 36 c-22 21 -44 37 -48 37 -5 0 -42 25 -83 55 -40 30
-83 55 -94 55 -11 0 -23 5 -26 10 -11 18 -110 12 -128 -7 -18 -21 -33 -76 -43
-158 -11 -102 6 -95 -239 -95 l-215 0 0 44 c0 48 24 82 40 56 4 -7 9 25 11 78
4 91 4 91 44 132 21 22 46 40 56 40 17 0 225 98 271 128 14 9 48 32 75 50 l48
33 155 -3 155 -3 70 -39z m3057 -628 c8 -7 20 -40 27 -73 7 -33 18 -78 23
-100 6 -22 13 -86 15 -142 5 -113 0 -128 -68 -218 -45 -59 -197 -201 -254
-237 -22 -14 -66 -61 -100 -108 -98 -135 -167 -211 -249 -275 -42 -33 -133
-106 -202 -162 -153 -124 -332 -252 -399 -285 -27 -14 -87 -37 -132 -52 -46
-14 -120 -38 -165 -53 -81 -27 -89 -28 -364 -31 -276 -4 -346 1 -489 32 -38 8
-143 22 -232 31 -89 8 -203 26 -255 39 -51 13 -122 27 -158 30 -36 4 -139 18
-230 31 -91 13 -208 28 -260 34 -52 6 -124 19 -160 29 -152 45 -221 62 -247
62 -16 0 -51 11 -79 24 -30 14 -82 27 -125 31 -41 4 -101 13 -134 21 -33 7
-97 14 -143 14 -131 0 -297 28 -362 60 -19 10 -58 22 -85 28 -67 14 -250 86
-292 114 -25 18 -33 30 -33 54 0 16 6 38 12 47 12 15 180 78 263 98 22 5 60
18 85 28 112 48 118 48 220 29 52 -10 115 -25 140 -33 25 -8 92 -20 150 -25
58 -6 139 -21 180 -33 73 -21 89 -22 555 -22 l480 0 180 48 c134 36 208 62
290 102 61 30 132 63 158 74 27 11 65 33 85 49 20 16 87 55 147 87 61 32 145
85 188 118 100 76 242 143 437 207 85 28 197 71 248 95 52 25 144 59 206 76
61 18 129 41 151 52 70 35 261 76 415 88 80 6 161 14 180 19 60 14 364 12 382
-2z"/>
</g>
</svg>
